<svg xmlns="http://www.w3.org/2000/svg" width="18.497" height="13.638" viewBox="0 0 18.497 13.638">
  <g id="Group_4" data-name="Group 4" transform="translate(-2.75 -5.184)">
    <path id="Vector" d="M.218,13.418a.754.754,0,0,1,0-1.06l5.54-5.54L.218,1.277A.75.75,0,0,1,1.278.218l6.07,6.07a.754.754,0,0,1,0,1.06l-6.07,6.07a.748.748,0,0,1-1.06,0Z" transform="translate(13.682 5.184)" fill="#292d32"/>
    <path id="Vector-2" data-name="Vector" d="M.75,1.5A.755.755,0,0,1,0,.75.755.755,0,0,1,.75,0H17.58a.755.755,0,0,1,.75.75.755.755,0,0,1-.75.75Z" transform="translate(2.75 11.25)" fill="#292d32"/>
  </g>
</svg>
