<svg xmlns="http://www.w3.org/2000/svg" width="21.5" height="21.5" viewBox="0 0 21.5 21.5">
  <g id="Group_3" data-name="Group 3" transform="translate(-260 -165.25)">
    <path id="Vector" d="M0,7.75v-7A.755.755,0,0,1,.75,0,.755.755,0,0,1,1.5.75v7a.755.755,0,0,1-.75.75A.755.755,0,0,1,0,7.75Z" transform="translate(263 172.25)" fill="#292d32"/>
    <path id="Vector-2" data-name="Vector" d="M4,8A4,4,0,1,1,8,4,4,4,0,0,1,4,8ZM4,1.5A2.5,2.5,0,1,0,6.5,4,2.5,2.5,0,0,0,4,1.5Z" transform="translate(260 165.25)" fill="#292d32"/>
    <path id="Vector-3" data-name="Vector" d="M3.75,7.5A3.75,3.75,0,1,1,7.5,3.75,3.754,3.754,0,0,1,3.75,7.5Zm0-6A2.25,2.25,0,1,0,6,3.75,2.253,2.253,0,0,0,3.75,1.5Z" transform="translate(260 179.25)" fill="#292d32"/>
    <path id="Vector-4" data-name="Vector" d="M3.75,7.5A3.75,3.75,0,1,1,7.5,3.75,3.754,3.754,0,0,1,3.75,7.5Zm0-6A2.25,2.25,0,1,0,6,3.75,2.253,2.253,0,0,0,3.75,1.5Z" transform="translate(274 179.25)" fill="#292d32"/>
    <path id="Vector-5" data-name="Vector" d="M13.083,8.033a5.227,5.227,0,0,0-4.94-3.51h-.02l-3.43.01h-.02A4.8,4.8,0,0,1,.023.933a.748.748,0,1,1,1.45-.37,3.305,3.305,0,0,0,3.2,2.48h.01l3.43-.01h.03a6.72,6.72,0,0,1,6.35,4.52.74.74,0,0,1-.46.95,1.967,1.967,0,0,1-.24.03A.751.751,0,0,1,13.083,8.033Z" transform="translate(263.127 172.258)" fill="#292d32"/>
  </g>
</svg>
