<svg xmlns="http://www.w3.org/2000/svg" width="11.726" height="7.558" viewBox="0 0 11.726 7.558">
  <g id="Group_2" data-name="Group 2" transform="translate(-6.137 -8.223)">
    <path id="Vector" d="M2.932,7.328.442,4.838a1.5,1.5,0,0,1,0-2.13L2.932.218a.75.75,0,0,1,1.06,1.06L1.5,3.768l2.49,2.5a.754.754,0,0,1,0,1.06.786.786,0,0,1-.53.22A.742.742,0,0,1,2.932,7.328Z" transform="translate(6.137 8.232)" fill="#292d32"/>
    <path id="Vector-2" data-name="Vector" d="M.218,7.338a.754.754,0,0,1,0-1.06l2.49-2.5-2.49-2.5A.75.75,0,0,1,1.278.218l2.49,2.49a1.5,1.5,0,0,1,0,2.13l-2.49,2.49a.737.737,0,0,1-1.06.01Z" transform="translate(13.652 8.223)" fill="#292d32"/>
  </g>
</svg>
