<svg xmlns="http://www.w3.org/2000/svg" width="19.5" height="21.324" viewBox="0 0 19.5 21.324">
  <g id="Group_3" data-name="Group 3" transform="translate(-2.25 -1.426)">
    <path id="Vector" d="M2.288,18.094a2.283,2.283,0,0,1-1.589-.6,2.381,2.381,0,0,1-.68-2.03l.37-3.24a3.585,3.585,0,0,1,.87-1.86l8.21-8.69A4.531,4.531,0,0,1,12.694,0a4.659,4.659,0,0,1,3.134,1.494c2.169,2.049,2.23,4.189.18,6.359L7.8,16.544a3.59,3.59,0,0,1-1.81.97l-3.219.55-.176.013C2.488,18.086,2.391,18.094,2.288,18.094ZM12.678,1.484a3.007,3.007,0,0,0-2.12,1.2l-8.21,8.7a2.292,2.292,0,0,0-.47,1l-.37,3.24a.88.88,0,0,0,.22.769.792.792,0,0,0,.564.2,1.439,1.439,0,0,0,.216-.017l3.219-.55a2.218,2.218,0,0,0,.97-.52l8.21-8.689c1.236-1.316,1.689-2.541-.12-4.24A3.172,3.172,0,0,0,12.678,1.484Z" transform="translate(3.252 1.426)" fill="#292d32"/>
    <path id="Vector-2" data-name="Vector" d="M6.118,6.648A6.859,6.859,0,0,1,.008.868a.762.762,0,0,1,.63-.86.762.762,0,0,1,.86.63,5.372,5.372,0,0,0,4.78,4.52.751.751,0,0,1,.67.82.774.774,0,0,1-.76.67Z" transform="translate(11.152 4.301)" fill="#292d32"/>
    <path id="Vector-3" data-name="Vector" d="M.75,1.5A.755.755,0,0,1,0,.75.755.755,0,0,1,.75,0h18a.755.755,0,0,1,.75.75.755.755,0,0,1-.75.75Z" transform="translate(2.25 21.25)" fill="#292d32"/>
  </g>
</svg>
